<svg width="62" height="62" viewBox="0 0 62 62" fill="none" xmlns="http://www.w3.org/2000/svg">
<path d="M31 5.8125C17.1118 5.8125 5.8125 17.1118 5.8125 31C5.8125 44.8882 17.1118 56.1875 31 56.1875C44.8882 56.1875 56.1875 44.8882 56.1875 31C56.1875 17.1118 44.8882 5.8125 31 5.8125ZM24.9187 19.9587C26.4529 18.3324 28.612 17.4375 31 17.4375C33.388 17.4375 35.5277 18.3384 37.068 19.9732C38.6289 21.6298 39.3882 23.8555 39.2089 26.2483C38.8505 31 35.1693 34.875 31 34.875C26.8307 34.875 23.1422 31 22.7911 26.2471C22.613 23.8349 23.3711 21.6019 24.9187 19.9587ZM31 52.3125C28.1549 52.3144 25.3383 51.7449 22.7174 50.6379C20.0964 49.5309 17.7245 47.9088 15.7422 45.8679C16.8775 44.2488 18.3241 42.8722 19.9974 41.8185C23.0841 39.8398 26.9906 38.75 31 38.75C35.0094 38.75 38.9159 39.8398 41.9989 41.8185C43.6737 42.8717 45.1215 44.2484 46.2578 45.8679C44.2757 47.909 41.9038 49.5312 39.2828 50.6383C36.6618 51.7453 33.8452 52.3147 31 52.3125Z" fill="#9CA3AF"/>
</svg>
