<svg width="16" height="16" viewBox="0 0 24 24" fill="none" xmlns="http://www.w3.org/2000/svg">
<path d="M10.5 1.96875C5.78854 1.96875 1.96875 5.78854 1.96875 10.5C1.96875 15.2115 5.78854 19.0312 10.5 19.0312C15.2115 19.0312 19.0312 15.2115 19.0312 10.5C19.0312 5.78854 15.2115 1.96875 10.5 1.96875ZM11.9483 13.9736C12.0118 14.0339 12.0625 14.1064 12.0976 14.1866C12.1327 14.2669 12.1513 14.3534 12.1525 14.441C12.1536 14.5286 12.1371 14.6155 12.1041 14.6966C12.0711 14.7778 12.0222 14.8515 11.9603 14.9134C11.8984 14.9754 11.8246 15.0243 11.7435 15.0573C11.6624 15.0903 11.5754 15.1067 11.4879 15.1056C11.4003 15.1045 11.3138 15.0858 11.2335 15.0507C11.1533 15.0157 11.0808 14.9649 11.0205 14.9014L7.08299 10.9639C6.96001 10.8408 6.89093 10.674 6.89093 10.5C6.89093 10.326 6.96001 10.1592 7.08299 10.0361L11.0205 6.09861C11.1446 5.98074 11.3098 5.91599 11.4809 5.91818C11.652 5.92038 11.8155 5.98933 11.9365 6.11034C12.0575 6.23136 12.1265 6.39485 12.1287 6.56598C12.1309 6.7371 12.0661 6.90231 11.9483 7.02639L8.47506 10.5L11.9483 13.9736Z" fill="#F47FA6"/>
</svg>
