<svg width="16" height="16" viewBox="0 0 24 24" fill="none" xmlns="http://www.w3.org/2000/svg">
<path d="M1.96875 10.5C1.96875 15.2115 5.78854 19.0312 10.5 19.0312C15.2115 19.0312 19.0312 15.2115 19.0312 10.5C19.0312 5.78854 15.2115 1.96875 10.5 1.96875C5.78854 1.96875 1.96875 5.78854 1.96875 10.5ZM12.5249 10.5L9.05174 7.02639C8.93386 6.90231 8.86912 6.7371 8.87131 6.56598C8.8735 6.39485 8.94245 6.23136 9.06347 6.11034C9.18448 5.98933 9.34798 5.92038 9.5191 5.91818C9.69023 5.91599 9.85544 5.98074 9.97951 6.09861L13.917 10.0361C14.04 10.1592 14.1091 10.326 14.1091 10.5C14.1091 10.674 14.04 10.8408 13.917 10.9639L9.97951 14.9014C9.85544 15.0193 9.69023 15.084 9.5191 15.0818C9.34798 15.0796 9.18448 15.0107 9.06347 14.8897C8.94245 14.7686 8.8735 14.6051 8.87131 14.434C8.86912 14.2629 8.93386 14.0977 9.05174 13.9736L12.5249 10.5Z" fill="#F47FA6"/>
</svg>
