<svg width="54" height="54" viewBox="0 0 54 54" fill="none" xmlns="http://www.w3.org/2000/svg">
<path d="M41.9767 8.63157C37.7207 5.22631 32.4317 3.37231 26.9811 3.375C20.556 3.375 14.5548 5.85035 10.0682 10.3454C5.73234 14.695 3.35613 20.4377 3.37511 26.5117C3.37526 30.9649 4.68263 35.3201 7.13507 39.0372L7.15511 39.0656C7.18464 39.1089 7.21523 39.1521 7.24582 39.1943C7.2764 39.2365 7.31437 39.2913 7.32281 39.305L7.34601 39.3472C7.46519 39.5582 7.55695 39.8155 7.47574 40.075L5.533 47.1055C5.45528 47.3669 5.41272 47.6376 5.40644 47.9102C5.40504 48.6276 5.68815 49.3162 6.19369 49.8251C6.69924 50.334 7.38596 50.6217 8.10328 50.625C8.48233 50.6125 8.85588 50.5306 9.20543 50.3835L16.3235 47.8143L16.4132 47.7795C16.6068 47.6982 16.8149 47.6569 17.0249 47.6582C17.2185 47.6586 17.4104 47.6944 17.5912 47.7636C17.7621 47.8301 19.3136 48.4239 20.9504 48.8816C22.311 49.2613 25.1418 49.8308 27.3598 49.8308C33.651 49.8308 39.5256 47.3945 43.9004 42.969C48.2373 38.5773 50.6251 32.7396 50.6251 26.5243C50.6257 24.9289 50.4567 23.3379 50.121 21.7782C49.0304 16.6504 46.1385 11.9802 41.9767 8.63157ZM16.8751 30.375C16.2076 30.375 15.5551 30.1771 15.0001 29.8062C14.445 29.4354 14.0125 28.9083 13.757 28.2916C13.5016 27.6749 13.4347 26.9963 13.565 26.3416C13.6952 25.6869 14.0166 25.0855 14.4886 24.6135C14.9606 24.1415 15.562 23.8201 16.2167 23.6899C16.8714 23.5596 17.55 23.6265 18.1667 23.8819C18.7834 24.1374 19.3105 24.5699 19.6813 25.125C20.0522 25.68 20.2501 26.3325 20.2501 27C20.2501 27.8951 19.8945 28.7536 19.2616 29.3865C18.6287 30.0194 17.7702 30.375 16.8751 30.375ZM27.0001 30.375C26.3326 30.375 25.6801 30.1771 25.1251 29.8062C24.57 29.4354 24.1375 28.9083 23.882 28.2916C23.6266 27.6749 23.5597 26.9963 23.69 26.3416C23.8202 25.6869 24.1416 25.0855 24.6136 24.6135C25.0856 24.1415 25.687 23.8201 26.3417 23.6899C26.9964 23.5596 27.675 23.6265 28.2917 23.8819C28.9084 24.1374 29.4355 24.5699 29.8063 25.125C30.1772 25.68 30.3751 26.3325 30.3751 27C30.3751 27.8951 30.0195 28.7536 29.3866 29.3865C28.7537 30.0194 27.8952 30.375 27.0001 30.375ZM37.1251 30.375C36.4576 30.375 35.8051 30.1771 35.2501 29.8062C34.695 29.4354 34.2625 28.9083 34.007 28.2916C33.7516 27.6749 33.6847 26.9963 33.815 26.3416C33.9452 25.6869 34.2666 25.0855 34.7386 24.6135C35.2106 24.1415 35.812 23.8201 36.4667 23.6899C37.1214 23.5596 37.8 23.6265 38.4167 23.8819C39.0334 24.1374 39.5605 24.5699 39.9313 25.125C40.3022 25.68 40.5001 26.3325 40.5001 27C40.5001 27.8951 40.1445 28.7536 39.5116 29.3865C38.8787 30.0194 38.0202 30.375 37.1251 30.375Z" fill="#D1D5DB"/>
</svg>
