<svg width="30" height="30" viewBox="0 0 30 30" fill="none" xmlns="http://www.w3.org/2000/svg">
<path d="M23.0859 28.1259C22.8886 28.1267 22.696 28.0651 22.5357 27.9501L15 22.4868L7.46424 27.9501C7.30324 28.0669 7.10928 28.1294 6.9104 28.1287C6.71151 28.128 6.51801 28.064 6.35787 27.9461C6.19772 27.8282 6.07924 27.6623 6.01954 27.4726C5.95984 27.2829 5.96201 27.0791 6.02576 26.8907L8.96482 18.1855L1.34763 12.9618C1.18264 12.8488 1.05811 12.686 0.992246 12.4972C0.926379 12.3083 0.922625 12.1034 0.981531 11.9123C1.04044 11.7211 1.15892 11.5539 1.31966 11.4349C1.48041 11.3159 1.67499 11.2514 1.87498 11.2509H11.2722L14.1082 2.52336C14.1693 2.33493 14.2885 2.1707 14.4487 2.05422C14.6089 1.93774 14.8019 1.875 15 1.875C15.1981 1.875 15.3911 1.93774 15.5513 2.05422C15.7115 2.1707 15.8307 2.33493 15.8918 2.52336L18.7277 11.2538H28.125C28.3252 11.2537 28.5202 11.3177 28.6815 11.4365C28.8427 11.5553 28.9616 11.7225 29.0209 11.9138C29.0802 12.1051 29.0767 12.3103 29.0109 12.4994C28.9451 12.6885 28.8204 12.8516 28.6553 12.9648L21.0351 18.1855L23.9724 26.8884C24.02 27.0293 24.0334 27.1795 24.0115 27.3266C23.9896 27.4737 23.933 27.6135 23.8464 27.7344C23.7597 27.8553 23.6456 27.9538 23.5134 28.0219C23.3812 28.09 23.2346 28.1256 23.0859 28.1259Z" fill="#F36795"/>
</svg>
