<svg width="27" height="27" viewBox="0 0 27 27" fill="none" xmlns="http://www.w3.org/2000/svg">
<path fill-rule="evenodd" clip-rule="evenodd" d="M7.17188 7.59375C7.17188 6.89476 7.73851 6.32812 8.4375 6.32812H23.625C24.324 6.32812 24.8906 6.89476 24.8906 7.59375C24.8906 8.29274 24.324 8.85938 23.625 8.85938H8.4375C7.73851 8.85938 7.17188 8.29274 7.17188 7.59375Z" fill="#4B5563"/>
<path fill-rule="evenodd" clip-rule="evenodd" d="M7.17188 13.5C7.17188 12.801 7.73851 12.2344 8.4375 12.2344H23.625C24.324 12.2344 24.8906 12.801 24.8906 13.5C24.8906 14.199 24.324 14.7656 23.625 14.7656H8.4375C7.73851 14.7656 7.17188 14.199 7.17188 13.5Z" fill="#4B5563"/>
<path fill-rule="evenodd" clip-rule="evenodd" d="M7.17188 19.4062C7.17188 18.7073 7.73851 18.1406 8.4375 18.1406H23.625C24.324 18.1406 24.8906 18.7073 24.8906 19.4062C24.8906 20.1052 24.324 20.6719 23.625 20.6719H8.4375C7.73851 20.6719 7.17188 20.1052 7.17188 19.4062Z" fill="#4B5563"/>
<path fill-rule="evenodd" clip-rule="evenodd" d="M2.53125 7.59375C2.53125 6.66177 3.28677 5.90625 4.21875 5.90625C5.15073 5.90625 5.90625 6.66177 5.90625 7.59375C5.90625 8.52573 5.15073 9.28125 4.21875 9.28125C3.28677 9.28125 2.53125 8.52573 2.53125 7.59375Z" fill="#4B5563"/>
<path fill-rule="evenodd" clip-rule="evenodd" d="M2.53125 13.5C2.53125 12.568 3.28677 11.8125 4.21875 11.8125C5.15073 11.8125 5.90625 12.568 5.90625 13.5C5.90625 14.432 5.15073 15.1875 4.21875 15.1875C3.28677 15.1875 2.53125 14.432 2.53125 13.5Z" fill="#4B5563"/>
<path fill-rule="evenodd" clip-rule="evenodd" d="M2.53125 19.4062C2.53125 18.4743 3.28677 17.7188 4.21875 17.7188C5.15073 17.7188 5.90625 18.4743 5.90625 19.4062C5.90625 20.3382 5.15073 21.0938 4.21875 21.0938C3.28677 21.0938 2.53125 20.3382 2.53125 19.4062Z" fill="#4B5563"/>
</svg>
