<svg width="24" height="24" viewBox="0 0 24 24" fill="none" xmlns="http://www.w3.org/2000/svg">
<g id="icon / ionicons / filled / school">
<path id="Vector" d="M12 17.2491C11.8694 17.2491 11.7412 17.215 11.6278 17.1502L5.0625 13.3979C5.00545 13.365 4.94074 13.3476 4.87486 13.3477C4.80899 13.3477 4.74428 13.3651 4.68726 13.398C4.63024 13.431 4.58291 13.4784 4.55003 13.5355C4.51716 13.5926 4.4999 13.6573 4.5 13.7232V17.2491C4.49989 17.383 4.53561 17.5145 4.60344 17.6299C4.67128 17.7453 4.76877 17.8404 4.88578 17.9054L11.6358 21.6554C11.7472 21.7173 11.8725 21.7498 12 21.7498C12.1275 21.7498 12.2528 21.7173 12.3642 21.6554L19.1142 17.9054C19.2312 17.8404 19.3287 17.7453 19.3966 17.6299C19.4644 17.5145 19.5001 17.383 19.5 17.2491V13.7232C19.5001 13.6573 19.4828 13.5926 19.45 13.5355C19.4171 13.4784 19.3698 13.431 19.3127 13.398C19.2557 13.3651 19.191 13.3477 19.1251 13.3477C19.0593 13.3476 18.9945 13.365 18.9375 13.3979L12.3722 17.1502C12.2588 17.215 12.1306 17.2491 12 17.2491Z" fill="#111827"/>
<path id="Vector_2" d="M23.2461 8.92965C23.2461 8.92965 23.2461 8.9259 23.2461 8.92449C23.234 8.80561 23.1937 8.69134 23.1284 8.59122C23.0632 8.49109 22.975 8.408 22.8711 8.34887L12.3711 2.34887C12.2578 2.28408 12.1295 2.25 11.999 2.25C11.8684 2.25 11.7401 2.28408 11.6268 2.34887L1.12676 8.34887C1.01201 8.41448 0.916631 8.50925 0.850296 8.62359C0.783961 8.73793 0.749023 8.86777 0.749023 8.99996C0.749023 9.13215 0.783961 9.26199 0.850296 9.37633C0.916631 9.49067 1.01201 9.58544 1.12676 9.65105L11.6268 15.6511C11.7401 15.7158 11.8684 15.7499 11.999 15.7499C12.1295 15.7499 12.2578 15.7158 12.3711 15.6511L21.6093 10.3725C21.6235 10.3642 21.6397 10.3599 21.6562 10.3599C21.6727 10.3599 21.6889 10.3643 21.7032 10.3726C21.7174 10.3808 21.7293 10.3927 21.7375 10.407C21.7457 10.4213 21.75 10.4375 21.7499 10.454V17.2289C21.7499 17.6325 22.0602 17.9789 22.4638 17.999C22.5652 18.0039 22.6665 17.9882 22.7617 17.9527C22.8568 17.9173 22.9438 17.8629 23.0173 17.7929C23.0908 17.7228 23.1493 17.6386 23.1893 17.5453C23.2293 17.4519 23.2499 17.3515 23.2499 17.25V8.99996C23.2498 8.97647 23.2486 8.95301 23.2461 8.92965Z" fill="#111827"/>
</g>
</svg>
