<svg width="30" height="30" viewBox="0 0 30 30" fill="none" xmlns="http://www.w3.org/2000/svg">
<path d="M23.222 27.3893C23.0318 27.3901 22.8462 27.3308 22.6917 27.2199L15.4285 21.9542L8.16528 27.2199C8.0101 27.3325 7.82316 27.3928 7.63147 27.3921C7.43978 27.3914 7.25327 27.3297 7.09892 27.216C6.94457 27.1024 6.83037 26.9426 6.77283 26.7597C6.71529 26.5769 6.71739 26.3804 6.77883 26.1989L9.61159 17.8084L2.2699 12.7737C2.11087 12.6648 1.99085 12.5079 1.92737 12.3259C1.86388 12.1439 1.86026 11.9463 1.91704 11.7621C1.97381 11.5779 2.08801 11.4167 2.24294 11.302C2.39787 11.1873 2.58541 11.1252 2.77817 11.1247H11.8356L14.5689 2.7128C14.6278 2.53119 14.7427 2.37289 14.8971 2.26063C15.0515 2.14836 15.2375 2.08789 15.4285 2.08789C15.6194 2.08789 15.8054 2.14836 15.9598 2.26063C16.1142 2.37289 16.2291 2.53119 16.288 2.7128L19.0214 11.1275H28.0788C28.2718 11.1274 28.4597 11.1891 28.6151 11.3036C28.7705 11.418 28.8852 11.5792 28.9423 11.7636C28.9994 11.9479 28.996 12.1457 28.9326 12.328C28.8692 12.5103 28.7491 12.6675 28.5899 12.7766L21.2453 17.8084L24.0764 26.1966C24.1223 26.3324 24.1352 26.4772 24.1141 26.619C24.0929 26.7607 24.0384 26.8954 23.9549 27.012C23.8714 27.1285 23.7614 27.2235 23.634 27.2891C23.5065 27.3547 23.3653 27.3891 23.222 27.3893Z" fill="#F36795"/>
</svg>
