<svg width="16" height="20" viewBox="0 0 16 20" fill="none" xmlns="http://www.w3.org/2000/svg">
<g clip-path="url(#clip0_961_1419)">
<path d="M15.4993 6.71167C14.1884 7.5217 13.3788 8.91032 13.3788 10.4532C13.3788 12.189 14.4198 13.7705 16.0005 14.4262C15.6921 15.4291 15.2294 16.3549 14.6511 17.2035C13.8029 18.3992 12.9162 19.6336 11.6053 19.6336C10.2945 19.6336 9.90892 18.8621 8.36675 18.8621C6.86314 18.8621 6.32338 19.6721 5.08964 19.6721C3.85591 19.6721 3.00772 18.5535 2.04386 17.1649C0.771573 15.2363 0.0390425 12.999 0.000488281 10.6461C0.000488281 6.82739 2.46796 4.78303 4.93543 4.78303C6.24627 4.78303 7.32579 5.63163 8.13543 5.63163C8.90651 5.63163 10.1402 4.74446 11.6053 4.74446C13.1475 4.70588 14.6125 5.43877 15.4993 6.71167ZM10.9113 3.1244C11.5668 2.35294 11.9137 1.38862 11.9523 0.385728C11.9523 0.27001 11.9523 0.115718 11.9137 0C10.7957 0.115718 9.7547 0.655738 9.02217 1.50434C8.36675 2.23722 7.98121 3.16297 7.94266 4.16586C7.94266 4.28158 7.94266 4.3973 7.98121 4.51302C8.05832 4.51302 8.17398 4.55159 8.25109 4.55159C9.29205 4.47445 10.2559 3.93443 10.9113 3.1244Z" fill="black"/>
</g>
<defs>
<clipPath id="clip0_961_1419">
<rect width="16" height="19.6721" fill="white" transform="translate(0.000488281)"/>
</clipPath>
</defs>
</svg>
