<svg width="32" height="32" viewBox="0 0 32 32" fill="none" xmlns="http://www.w3.org/2000/svg">
<g opacity="0.65">
<path d="M18.395 10.0181C17.7869 9.36156 16.9375 9 16 9C15.0575 9 14.2053 9.35937 13.6 10.0119C12.9882 10.6716 12.69 11.5681 12.76 12.5363C12.8988 14.4462 14.3522 16 16 16C17.6478 16 19.0988 14.4466 19.2397 12.5369C19.3107 11.5775 19.0107 10.6828 18.395 10.0181Z" fill="#4B5563"/>
<path d="M21.5002 23H10.5002C10.3562 23.0019 10.2136 22.9716 10.0828 22.9115C9.95197 22.8513 9.83621 22.7627 9.74393 22.6522C9.5408 22.4094 9.45893 22.0778 9.51955 21.7425C9.7833 20.2794 10.6064 19.0503 11.9002 18.1875C13.0496 17.4216 14.5055 17 16.0002 17C17.4949 17 18.9508 17.4219 20.1002 18.1875C21.3939 19.05 22.2171 20.2791 22.4808 21.7422C22.5414 22.0775 22.4596 22.4091 22.2564 22.6519C22.1642 22.7625 22.0484 22.8511 21.9176 22.9113C21.7868 22.9715 21.6442 23.0018 21.5002 23Z" fill="#4B5563"/>
</g>
</svg>
