<svg width="12" height="16" viewBox="0 0 12 16" fill="none" xmlns="http://www.w3.org/2000/svg">
<path d="M9.5 6H9V3.5C9 2.70435 8.68393 1.94129 8.12132 1.37868C7.55871 0.81607 6.79565 0.5 6 0.5C5.20435 0.5 4.44129 0.81607 3.87868 1.37868C3.31607 1.94129 3 2.70435 3 3.5V6H2.5C1.96974 6.00058 1.46137 6.21148 1.08643 6.58643C0.711479 6.96137 0.500579 7.46974 0.5 8V13.5C0.500579 14.0303 0.711479 14.5386 1.08643 14.9136C1.46137 15.2885 1.96974 15.4994 2.5 15.5H9.5C10.0303 15.4994 10.5386 15.2885 10.9136 14.9136C11.2885 14.5386 11.4994 14.0303 11.5 13.5V8C11.4994 7.46974 11.2885 6.96137 10.9136 6.58643C10.5386 6.21148 10.0303 6.00058 9.5 6ZM8 6H4V3.5C4 2.96957 4.21071 2.46086 4.58579 2.08579C4.96086 1.71071 5.46957 1.5 6 1.5C6.53043 1.5 7.03914 1.71071 7.41421 2.08579C7.78929 2.46086 8 2.96957 8 3.5V6Z" fill="#D1D5DB"/>
</svg>
