<svg width="24" height="24" viewBox="0 0 24 24" fill="none" xmlns="http://www.w3.org/2000/svg">
<path d="M16.5 5.5H7.5C6.96974 5.50058 6.46137 5.71148 6.08643 6.08643C5.71148 6.46137 5.50058 6.96974 5.5 7.5V16.5C5.50058 17.0303 5.71148 17.5386 6.08643 17.9136C6.46137 18.2885 6.96974 18.4994 7.5 18.5H16.5C17.0303 18.4994 17.5386 18.2885 17.9136 17.9136C18.2885 17.5386 18.4994 17.0303 18.5 16.5V7.5C18.4994 6.96974 18.2885 6.46137 17.9136 6.08643C17.5386 5.71148 17.0303 5.50058 16.5 5.5ZM15.3828 9.82156L11.1828 14.8216C11.1367 14.8764 11.0794 14.9208 11.0147 14.9516C10.95 14.9823 10.8795 14.9989 10.8078 15H10.7994C10.7293 15 10.66 14.9852 10.596 14.9567C10.532 14.9282 10.4747 14.8865 10.4278 14.8344L8.62781 12.8344C8.5821 12.7859 8.54654 12.7288 8.52322 12.6663C8.4999 12.6039 8.4893 12.5375 8.49203 12.4709C8.49477 12.4043 8.51078 12.3389 8.53914 12.2786C8.56749 12.2183 8.60761 12.1643 8.65715 12.1197C8.70668 12.0751 8.76463 12.0409 8.82757 12.019C8.89052 11.9972 8.95721 11.9881 9.02371 11.9924C9.09021 11.9967 9.15518 12.0142 9.21481 12.044C9.27444 12.0737 9.32752 12.1151 9.37094 12.1656L10.7863 13.7381L14.6172 9.17844C14.7031 9.07909 14.8247 9.01754 14.9556 9.00711C15.0866 8.99668 15.2164 9.03819 15.317 9.12268C15.4175 9.20717 15.4808 9.32784 15.4932 9.45862C15.5055 9.5894 15.4658 9.71977 15.3828 9.82156Z" fill="#F47FA6"/>
</svg>