<svg width="20" height="20" viewBox="0 0 20 20" fill="none" xmlns="http://www.w3.org/2000/svg">
<g opacity="0.65">
<path d="M12.395 4.01813C11.7869 3.36156 10.9375 3 10 3C9.05753 3 8.20534 3.35937 7.60003 4.01187C6.98815 4.67156 6.69003 5.56813 6.76003 6.53625C6.89878 8.44625 8.35222 10 10 10C11.6478 10 13.0988 8.44656 13.2397 6.53687C13.3107 5.5775 13.0107 4.68281 12.395 4.01813Z" fill="#D1D5DB"/>
<path d="M15.5002 17H4.50018C4.3562 17.0019 4.21361 16.9716 4.08279 16.9115C3.95197 16.8513 3.83621 16.7627 3.74393 16.6522C3.5408 16.4094 3.45893 16.0778 3.51955 15.7425C3.7833 14.2794 4.60643 13.0503 5.90018 12.1875C7.04955 11.4216 8.50549 11 10.0002 11C11.4949 11 12.9508 11.4219 14.1002 12.1875C15.3939 13.05 16.2171 14.2791 16.4808 15.7422C16.5414 16.0775 16.4596 16.4091 16.2564 16.6519C16.1642 16.7625 16.0484 16.8511 15.9176 16.9113C15.7868 16.9715 15.6442 17.0018 15.5002 17Z" fill="#D1D5DB"/>
</g>
</svg>
