<svg width="34" height="34" viewBox="0 0 34 34" fill="none" xmlns="http://www.w3.org/2000/svg">
<path d="M27.625 4.25H6.375C5.24821 4.25123 4.16792 4.69939 3.37116 5.49616C2.57439 6.29292 2.12623 7.37321 2.125 8.5V25.5C2.12623 26.6268 2.57439 27.7071 3.37116 28.5038C4.16792 29.3006 5.24821 29.7488 6.375 29.75H27.625C28.7518 29.7488 29.8321 29.3006 30.6288 28.5038C31.4256 27.7071 31.8738 26.6268 31.875 25.5V8.5C31.8738 7.37321 31.4256 6.29292 30.6288 5.49616C29.8321 4.69939 28.7518 4.25123 27.625 4.25ZM22.3125 8.5C22.9429 8.5 23.5592 8.68694 24.0834 9.03719C24.6076 9.38744 25.0161 9.88526 25.2574 10.4677C25.4986 11.0501 25.5617 11.691 25.4388 12.3094C25.3158 12.9277 25.0122 13.4956 24.5664 13.9414C24.1206 14.3872 23.5527 14.6908 22.9344 14.8138C22.316 14.9367 21.6751 14.8736 21.0927 14.6324C20.5103 14.3911 20.0124 13.9826 19.6622 13.4584C19.3119 12.9342 19.125 12.3179 19.125 11.6875C19.1259 10.8424 19.462 10.0321 20.0596 9.43457C20.6571 8.83699 21.4674 8.50088 22.3125 8.5ZM6.375 27.625C5.81141 27.625 5.27091 27.4011 4.8724 27.0026C4.47388 26.6041 4.25 26.0636 4.25 25.5V21.0089L10.548 15.4109C11.1556 14.872 11.9459 14.585 12.7577 14.6085C13.5696 14.6319 14.342 14.964 14.9175 15.5371L19.2306 19.8409L11.4464 27.625H6.375ZM29.75 25.5C29.75 26.0636 29.5261 26.6041 29.1276 27.0026C28.7291 27.4011 28.1886 27.625 27.625 27.625H14.452L22.515 19.562C23.0859 19.0765 23.8104 18.809 24.5597 18.8071C25.3091 18.8051 26.0349 19.0688 26.6083 19.5513L29.75 22.1691V25.5Z" fill="#6B7280"/>
</svg>
